<?xml version="1.0" encoding="UTF-8"?>
<svg width="44px" height="45px" viewBox="0 0 44 45" version="1.1" xmlns="http://www.w3.org/2000/svg" xmlns:xlink="http://www.w3.org/1999/xlink">
    <!-- Generator: Sketch 51.1 (57501) - http://www.bohemiancoding.com/sketch -->
    <title>Orb/leaf Copy 3</title>
    <desc>Created with Sketch.</desc>
    <defs>
        <polygon id="path-1" points="0 0.16584 12.7931939 0.16584 12.7931939 2.62824 0 2.62824"></polygon>
    </defs>
    <g id="July-17" stroke="none" stroke-width="1" fill="none" fill-rule="evenodd">
        <g id="SimpleSplash1-Copy-5" transform="translate(-453.000000, -315.000000)">
            <g id="Orbillo/Candle" transform="translate(444.000000, 305.000000)">
                <path d="M29.25,55 L36.75,55 C36.8880712,55 37,54.8880712 37,54.75 C37,47.9374084 37,41.1248169 37,34.3122253 C37,34.2328593 37,34 36.5,34.5 C36.0122567,34.9877433 34.6826495,36.1189434 32.9989982,36.7499782 C31.4185172,37.3423446 29.8403427,37.6054664 29.2462089,37.6054664 C29,37.6054664 29,37.7473745 29,37.8076172 C29,43.4550781 29,49.1025391 29,54.75 L29,54.75 C29,54.8880712 29.1119288,55 29.25,55 Z" id="Fill-1" fill="#02072F"></path>
                <path d="M24,31 C24,31 15.8209334,37.0154778 16.002995,37.1238223 C16.1830989,37.2321669 16.7292835,38 16.7292835,38 L24,31 Z" id="Fill-3" fill="#02072F"></path>
                <g id="Group-7" stroke-width="1" transform="translate(9.000000, 26.000000)">
                    <mask id="mask-2" fill="white">
                        <use xlink:href="#path-1"></use>
                    </mask>
                    <g id="Clip-6"></g>
                    <path d="M12.7931939,0.16584 C12.7931939,0.16584 0.442530612,1.76664 0.136102041,1.64424 C-0.170326531,1.51944 0.136102041,2.62824 0.136102041,2.62824 L12.7931939,0.16584 Z" id="Fill-5" fill="#02072F" mask="url(#mask-2)"></path>
                </g>
                <polygon id="Fill-8" fill="#02072F" points="21 24 9.72391195 17 9 18.4"></polygon>
                <path d="M24,18 C24,18 18.249913,9.78145691 18.0013923,10.0044574 L17,10.8921294 L24,18 Z" id="Fill-10" fill="#02072F"></path>
                <path d="M45.1257996,10 L46,10.8881668 C46,10.8881668 43.6666667,13.2587779 39,18 C43.0838664,12.6666667 45.1257996,10 45.1257996,10 Z" id="Fill-12" fill="#02072F"></path>
                <polygon id="Fill-14" fill="#02072F" points="41 21 52.5718016 17 53 17.6661251"></polygon>
                <path d="M41.0006334,26.0163933 C41.1000595,25.8928427 53,26.5081967 53,26.5081967 L53,27 C53,27 40.8992578,26.1399439 41.0006334,26.0163933" id="Fill-16" fill="#02072F"></path>
                <polygon id="Fill-18" fill="#02072F" points="41 30 49 36.1257996 48.2369459 37"></polygon>
                <path d="M32.2593893,33.5 C31.5,33.5 31,31.5 31,30.5 C31,29.5 31.4227295,26.7056586 32.0062917,25.3342844 C32.589854,23.9610081 32.5039721,26.9460295 33,28.5 C33.4401032,29.8713742 33.6458906,31.4293866 33.5,32 C33.3541094,32.5706134 33.0187786,33.5 32.2593893,33.5 Z M32.5023196,18 C32.5023196,18 29.0213444,23.0746553 29.0106722,28.5373276 C29,34 33.0007791,34 33.0007791,34 C33.0007791,34 36,33.5 35.9963986,29.317166 C35.9927972,25.1343319 33.4992385,21.9010937 33.0007791,20.7313362 C32.5023196,19.5596767 32.5023196,18 32.5023196,18 Z" id="Fill-20" fill="#02072F"></path>
            </g>
        </g>
    </g>
</svg>