<?xml version="1.0" encoding="UTF-8"?>
<svg width="64px" height="64px" viewBox="0 0 64 64" version="1.1" xmlns="http://www.w3.org/2000/svg" xmlns:xlink="http://www.w3.org/1999/xlink">
    <!-- Generator: Sketch 51.1 (57501) - http://www.bohemiancoding.com/sketch -->
    <title>Orbillo/CandleV2</title>
    <desc>Created with Sketch.</desc>
    <defs></defs>
    <g id="Orbillo/CandleV2" stroke="none" stroke-width="1" fill="none" fill-rule="evenodd">
        <path d="M29.25,56 L35.5664107,56 C35.7044819,56 35.8164107,55.8880712 35.8164107,55.75 C35.8164107,47.1685066 35.8164107,38.5870131 35.8164107,30.0055197 C35.8164107,29.8978795 34.1678505,30.3879313 32.2886321,31.4333218 C30.9400286,32.1835366 29.7160151,32.4086757 29.2097827,32.4086757 C29,32.4086757 29,32.6011384 29,32.6828425 C29,40.371895 29,48.0609475 29,55.75 L29,55.75 C29,55.8880712 29.1119288,56 29.25,56 Z" id="Fill-1" fill="#02072F"></path>
        <path d="M32.1699864,27.1242676 C31.4290053,27.1242676 30.9411257,25.1727492 30.9411257,24.19699 C30.9411257,23.2212308 31.3536079,20.4946264 31.9230241,19.1564954 C32.4924403,17.8165085 32.4086403,20.7291705 32.8926441,22.2454716 C33.3220788,23.5836026 33.5228777,25.1038475 33.3805237,25.6606288 C33.2381696,26.21741 32.9109675,27.1242676 32.1699864,27.1242676 Z M32.4070279,12 C32.4070279,12 29.0104343,16.9516415 29.0000208,22.2818943 C28.9896073,27.6121471 32.8934043,27.6121471 32.8934043,27.6121471 C32.8934043,27.6121471 35.8199217,27.1242676 35.8164076,23.0428288 C35.8128934,18.96139 33.3797806,15.806528 32.8934043,14.6651264 C32.4070279,13.5218688 32.4070279,12 32.4070279,12 Z" id="Fill-20" fill="#02072F"></path>
    </g>
</svg>