<?xml version="1.0" encoding="UTF-8"?>
<svg width="51px" height="20px" viewBox="0 0 51 20" version="1.1" xmlns="http://www.w3.org/2000/svg" xmlns:xlink="http://www.w3.org/1999/xlink">
    <!-- Generator: Sketch 51.1 (57501) - http://www.bohemiancoding.com/sketch -->
    <title>Orb/leaf Copy 5</title>
    <desc>Created with Sketch.</desc>
    <defs>
        <polygon id="path-1" points="0 0.114046296 22.0802622 0.114046296 22.0802622 5.52571296 0 5.52571296"></polygon>
    </defs>
    <g id="July-17" stroke="none" stroke-width="1" fill="none" fill-rule="evenodd">
        <g id="SimpleSplash1-Copy-5" transform="translate(-337.000000, -476.000000)">
            <g id="Orbillo/Science" transform="translate(330.000000, 456.000000)">
                <g id="science" transform="translate(7.000000, 20.000000)">
                    <g id="Group">
                        <path d="M45.9384604,11.455979 L45.2519419,11.3830644 C43.7732865,11.227927 42.2961844,11.0712383 40.8175291,10.9223065 C40.6886127,10.9098955 40.6373568,10.8773166 40.5767816,10.7702719 C40.0005409,9.75877636 39.4211938,8.7503836 38.8433999,7.74043946 C38.2640528,6.73204669 37.686259,5.72365393 37.1084651,4.71370979 C37.0121661,4.54150734 36.8816965,4.39412685 36.5648418,4.46083591 C34.9339719,4.81765182 33.3015489,5.16515948 31.6691258,5.51576988 L29.2430127,6.03703137 C29.0550744,6.07426434 29.0209038,6.06961022 28.9696479,5.98738742 L28.8547104,5.79346574 L28.3110871,6.40470689 L28.5285364,6.47917282 C28.5316428,6.49468655 28.5363025,6.50864891 28.5409621,6.5210599 C28.562707,6.59242308 28.584452,6.65913214 28.5797923,6.70877609 C28.5238768,7.33397961 28.4570888,7.95608037 28.391854,8.57973251 L28.2256606,10.1698903 C28.0936378,11.431157 27.961615,12.693975 27.8326986,13.9785122 C27.8125069,14.1786394 27.7954216,14.2329375 27.6882501,14.2701704 L27.4956522,14.3337768 L27.8917206,15.0070729 L28.0423819,14.8565896 C28.1107231,14.7867778 28.1464469,14.7867778 28.3374917,14.8767575 C29.7182948,15.4973069 31.1022044,16.1147535 32.4830075,16.7290974 C32.5358166,16.7539194 32.590179,16.7756386 32.6492009,16.7989092 L32.8666502,16.8888889 L33.1105041,16.299367 L31.9906401,15.7905165 C30.8552441,15.2785632 29.719848,14.7681613 28.5797923,14.2624136 C28.4617484,14.2081155 28.4633016,14.2003586 28.4757273,14.1088276 C28.5130043,13.8559537 28.5363025,13.6030799 28.5596006,13.3486546 C28.5720263,13.2152365 28.5828987,13.0818184 28.5968776,12.9484002 L28.7739435,11.2760196 C28.9308176,9.78670108 29.0876918,8.29583116 29.2399063,6.80651262 C29.2492256,6.70567334 29.252332,6.70567334 29.3377585,6.68860824 C31.7141689,6.18596323 34.0921324,5.6786641 36.4654364,5.16050536 C36.5819271,5.13723475 36.595906,5.14188887 36.6564811,5.25048502 C37.8555588,7.35259609 39.0608493,9.45470716 40.2739058,11.5521641 C40.3360342,11.6607603 40.334481,11.6871336 40.245948,11.7833188 C39.4879818,12.6226118 38.7331221,13.466559 37.9782623,14.3089548 L37.2575732,15.115669 C37.226509,15.1497992 37.1985512,15.1854808 37.167487,15.2242651 L37.0152725,15.4088786 L37.4921078,15.8261981 L37.6629608,15.6446874 C37.7033443,15.6028003 37.7375149,15.5671187 37.7685791,15.5314371 L38.1553282,15.1017066 C38.9024219,14.2670677 39.6495156,13.4355315 40.3919497,12.6008926 C40.4711634,12.5124643 40.5099936,12.4907451 40.609399,12.5093615 C40.9371262,12.5559028 41.2679598,12.5884816 41.5972402,12.6226118 L44.4473794,12.9282324 C44.8294689,12.9685681 45.2115584,13.0042497 45.60918,13.043034 L46.0036952,13.0833697 L46.0347594,12.4100736 L41.0272123,11.8795039 C41.0411912,11.8484764 41.0520637,11.8158976 41.0567233,11.7817674 C41.0675958,11.7212638 41.0629362,11.663863 41.0505105,11.6080136 L45.9167155,12.1199668 L46.0844621,12.1354805 L46.1217391,11.6576575 L46.0953346,11.5319963 L45.9384604,11.455979 Z" id="Fill-1" fill="#02072F"></path>
                        <g id="Group-5" transform="translate(0.000000, 14.000000)">
                            <mask id="mask-2" fill="white">
                                <use xlink:href="#path-1"></use>
                            </mask>
                            <g id="Clip-4"></g>
                            <path d="M20.5368112,3.74386111 L20.5774695,3.82099074 L19.1794501,3.00247222 C17.6375629,2.10052778 16.0956757,1.19858333 14.5569161,0.291916667 C14.3145302,0.148675926 14.1190577,0.145527778 13.875108,0.290342593 C12.0814522,1.34812037 10.2815414,2.39960185 8.48163047,3.45265741 L7.26031822,4.16886111 L0.329644844,0.114046296 L-0.000312756019,0.693305556 L1.57285002,1.61728704 C3.36650579,2.66719444 5.16016155,3.71867593 6.95225354,4.77330556 C7.16961897,4.90080556 7.35414502,4.89765741 7.56994668,4.77015741 C8.51290607,4.21765741 9.45586547,3.66358333 10.3988249,3.11265741 C11.6107544,2.40117593 12.8242478,1.69126852 14.0361774,0.975064815 C14.1816089,0.891638889 14.251979,0.891638889 14.4005381,0.978212963 C16.5319704,2.23747222 18.6712216,3.48413889 20.8089089,4.72923148 C20.8855342,4.77330556 20.965287,4.79062037 21.05755,4.81108333 C21.0810067,4.81580556 21.1075909,4.82210185 21.1341752,4.82682407 L21.5391943,5.52571296 L22.0802622,5.15108333 L21.1232287,3.46052778 L20.5368112,3.74386111 Z" id="Fill-3" fill="#02072F" mask="url(#mask-2)"></path>
                        </g>
                        <path d="M36.8241099,17.6957211 L36.8066154,17.8420761 C36.7938922,17.9591602 36.7811689,18.0778704 36.7557225,18.1949544 C36.6141764,18.8421689 36.1450067,19.2308229 35.4849884,19.1722809 C34.8933575,19.1332529 34.4432727,18.6551597 34.3923797,18.0095713 C34.370114,17.7396276 34.3812469,17.4566745 34.4241878,17.1883569 C34.5291546,16.5492732 34.9569737,16.1606192 35.5708703,16.1492361 L35.593136,16.1492361 C36.181586,16.1492361 36.6396229,16.5525255 36.7620841,17.1834784 C36.7843498,17.2973101 36.7954826,17.412768 36.8066154,17.5314782 L36.8241099,17.6957211 Z M37.6845193,17.3379643 C37.597047,16.2533108 36.840014,15.4304702 35.8396488,15.341031 C34.7327265,15.2580964 33.8516418,15.8500213 33.5860441,16.8891421 C33.5208375,17.1460766 33.4858485,17.4241511 33.4826677,17.7136089 C33.4778965,18.4502627 33.7625791,19.1121127 34.2651473,19.53329 C34.6341214,19.8390094 35.0857966,20 35.5724607,20 C35.7378629,20 35.9080363,19.980486 36.0798001,19.9447103 C37.0897076,19.7251777 37.6940618,18.8633091 37.6956522,17.637179 L37.6940618,17.5574969 C37.6924714,17.4940763 37.6892906,17.4160203 37.6845193,17.3379643 Z" id="Fill-6" fill="#02072F"></path>
                        <path d="M50.0171878,13.1951701 C49.8620903,13.7380704 49.4379459,14.0599094 48.8808607,14.0599094 L48.8634518,14.0599094 C48.2478094,14.0517822 47.7872646,13.6194125 47.7128811,12.9773598 C47.674898,12.6376408 47.6923069,12.2670382 47.7682731,11.9029374 C47.8743092,11.3876698 48.322193,11.0365726 48.8776955,11.0316963 L48.8871913,11.0316963 C49.4221196,11.0316963 49.8525945,11.3632881 50.01244,11.901312 C50.1406328,12.3320562 50.1422155,12.7660513 50.0171878,13.1951701 Z M50.9794258,12.3499361 C50.9667648,12.208522 50.9509385,12.0654824 50.9240338,11.9256937 C50.7325358,10.943922 49.969709,10.261233 49.0217147,10.2238477 C48.9853142,10.2222222 48.9473311,10.2222222 48.9109307,10.2222222 C47.9170401,10.2222222 47.1700396,10.7797515 46.904158,11.7322652 C46.8566792,11.9045629 46.8218614,12.0996169 46.7997046,12.3466852 C46.7205732,13.165912 47.0133594,13.9396261 47.5799403,14.4175084 C47.9486927,14.7263439 48.4013244,14.8888889 48.871365,14.8888889 C49.0913503,14.8888889 49.3160835,14.8547544 49.5392341,14.7832346 C50.4524106,14.4939046 50.9841737,13.6811796 51,12.5498665 L50.9794258,12.3499361 Z" id="Fill-8" fill="#02072F"></path>
                        <polygon id="Fill-10" fill="#02072F" points="23.9478261 0.57689243 23.5613047 0 22.173913 1.57290837 22.6987022 2"></polygon>
                        <polygon id="Fill-12" fill="#02072F" points="21.9521739 16.9491173 22.9182361 18.4444444 23.5043478 18.0653262 22.6013268 16.6666667"></polygon>
                        <polygon id="Fill-14" fill="#02072F" points="24.0033673 2.88888889 25.0565217 1.62539683 24.6409205 1.11111111 23.5043478 2.46825397"></polygon>
                        <polygon id="Fill-16" fill="#02072F" points="26.3869565 2.89260032 25.8575456 2.44444444 24.8347826 3.58431918 25.3838621 4"></polygon>
                        <polygon id="Fill-18" fill="#02072F" points="23.5043478 16.2829658 24.2827083 17.5555556 24.8347826 17.1817985 24.117407 16"></polygon>
                        <polygon id="Fill-20" fill="#02072F" points="26.4948443 4.88888889 27.273913 4.04637228 26.7989901 3.55555556 25.9434783 4.4777908"></polygon>
                        <path d="M24.8347826,15.6760829 L25.5471975,16.8888889 L25.716396,16.7711237 C25.8303824,16.6902699 25.9229963,16.6269931 26.0227344,16.5584432 L26.1652174,16.4600126 L25.5044526,15.3333333 L24.8347826,15.6760829 Z" id="Fill-22" fill="#02072F"></path>
                        <polygon id="Fill-24" fill="#02072F" points="26.1652174 15.0062893 26.6945946 16 27.273913 15.5579515 26.7911477 14.6666667"></polygon>
                        <polygon id="Fill-26" fill="#02072F" points="27.5607784 5.77777778 28.1608696 5.13983371 27.7034357 4.66666667 27.0521739 5.39077853"></polygon>
                    </g>
                </g>
            </g>
        </g>
    </g>
</svg>