<?xml version="1.0" encoding="UTF-8"?>
<svg width="32px" height="43px" viewBox="0 0 32 43" version="1.1" xmlns="http://www.w3.org/2000/svg" xmlns:xlink="http://www.w3.org/1999/xlink">
    <!-- Generator: Sketch 51.1 (57501) - http://www.bohemiancoding.com/sketch -->
    <title>Orb/leaf Copy 4</title>
    <desc>Created with Sketch.</desc>
    <defs></defs>
    <g id="July-17" stroke="none" stroke-width="1" fill="none" fill-rule="evenodd">
        <g id="SimpleSplash1-Copy-5" transform="translate(-1130.000000, -466.000000)" stroke="#02072F">
            <g id="Orbillo/Hand" transform="translate(1114.000000, 456.000000)">
                <path d="M34.9485094,14.0684193 C34.6897069,15.4700454 35.7440876,16.5269037 35.9246103,17.6320939 C36.1067306,18.7388952 36.6962253,21.157103 36.859175,21.5792018 C37.0253198,21.9996897 37.0876242,22.5120082 36.8192364,22.6715036 C36.6179455,22.7923334 36.2824607,22.4765648 36.0683895,22.1914063 C35.8878667,21.9497467 35.295177,21.0249957 34.8111204,19.8811399 C34.3254663,18.735673 33.1241113,15.3266606 32.56497,14.3519666 C32.0042312,13.3772726 31.0457033,11.713043 30.5137203,11.1975024 C29.9833349,10.6819617 28.9097836,11.2055577 29.1526107,12.4203003 C29.3107678,13.2048887 29.4513519,13.7590949 30.6255486,16.0886941 C31.7997453,18.4166823 31.0568861,18.0251936 32.0569502,20.1566319 C33.0554168,22.2880702 33.0841726,22.7681674 33.3509629,23.2095991 C33.6193507,23.6510308 33.4867544,23.881413 33.2103788,24.032853 C32.9340033,24.182682 32.4723123,23.2724306 31.9291465,22.5377852 C31.3875783,21.8031398 30.6718774,19.6410913 30.1430895,18.7807829 C29.6143017,17.9204744 27.8697809,13.510991 27.5502716,12.7892341 C27.2307623,12.0658661 26.6077191,11.5761025 26.0949067,11.4729944 C25.5820943,11.3698863 25.6651667,11.788763 25.502217,12.5234084 C25.3360721,13.2580538 25.9063962,13.9105349 26.5214516,15.7084829 C27.1349095,17.5048198 27.0614224,17.4999866 27.5790274,18.8565029 C28.09823,20.2114081 28.9369419,22.3895673 29.1110745,22.9308849 C29.2836095,23.4722026 29.7069593,24.5612822 29.7069593,24.6579461 C29.7085569,25.2121522 29.12705,25.0413794 28.940137,24.7981087 C28.7516265,24.556449 26.8824971,22.1865732 26.1108822,19.9906923 C25.4574857,18.1363571 25.0756721,18.2040218 24.5165308,16.5124041 C23.7656839,14.2488585 23.1458359,14.0410312 22.7416566,14.1538057 C22.3390749,14.2681913 22.2288442,14.635514 22.1841129,15.9581979 C22.1393816,17.2567159 26.0246147,27.8704086 27.0534346,30.2918385 C27.2691034,30.7977128 27.478382,31.3873624 27.6429293,31.8658485 C27.6573072,32.002789 27.6700876,32.1381184 27.6828679,32.2750589 C27.8458177,33.9972868 26.671621,34.7802641 25.0245506,34.1455047 C23.8072201,33.676685 22.7160959,32.8131544 21.4732047,32.4925526 C20.3629099,32.2057831 19.1040433,32.2911695 17.9554073,32.4812751 C17.5416428,32.5489398 16.9649285,33.4253589 17.0016721,33.8893455 C17.033623,34.3050001 17.7652993,34.7367654 18.2685264,35.0203128 C18.7893266,35.3167486 19.4954421,35.3215818 19.9619257,35.6695717 C22.4157571,37.501352 25.2034758,38.7289832 27.5582593,40.8813653 C29.4625347,42.622926 32.307765,42.3699889 33.4532059,45.7371136 C33.850995,46.9067464 34.2967104,48.2084865 35.1194469,49.0559065 C36.0508165,50.0128788 35.8878667,52.0782634 37.0173321,51.9977102 C38.0701153,51.9236012 40.9696622,51.0665149 41.2508303,50.9730732 C42.1901877,50.6621377 46.7991093,49.2653448 46.9892173,47.9732711 C47.2608003,46.1334355 42.3100037,43.8908337 42.5288675,38.849813 C42.5991596,37.2516371 42.0927373,36.7473739 42.4362098,35.6921266 C42.7812799,34.6368794 42.3275767,31.0232618 41.9968845,30.353059 C41.66779,29.6828562 40.8466511,25.8034129 40.3929479,24.5048949 C39.9392447,23.2031548 38.9455707,19.3978205 38.6036958,18.508513 C38.2634184,17.6208164 37.9550919,16.6735105 37.7330329,15.7761476 C37.510974,14.8787847 35.4213832,11.4987714 34.9485094,14.0684193 Z" id="Stroke-1-Copy"></path>
            </g>
        </g>
    </g>
</svg>