<?xml version="1.0" encoding="UTF-8"?>
<svg width="64px" height="64px" viewBox="0 0 64 64" version="1.1" xmlns="http://www.w3.org/2000/svg" xmlns:xlink="http://www.w3.org/1999/xlink">
    <!-- Generator: Sketch 51.1 (57501) - http://www.bohemiancoding.com/sketch -->
    <title>Orbillo/HandV2</title>
    <desc>Created with Sketch.</desc>
    <defs></defs>
    <g id="Orbillo/HandV2" stroke="none" stroke-width="1" fill="none" fill-rule="evenodd">
        <path d="M35.4114194,11.9337911 C35.1165097,13.5309669 36.3179937,14.7352741 36.5237023,15.9946564 C36.7312313,17.2558745 37.4029701,20.0114616 37.588654,20.4924502 C37.7779787,20.9716029 37.8489755,21.5553982 37.5431432,21.7371458 C37.313769,21.8748334 36.9314786,21.5150099 36.687541,21.1900672 C36.4818324,20.9146921 35.8064528,19.8609232 35.2548624,18.557481 C34.7014516,17.2522028 33.332488,13.3675777 32.6953375,12.256898 C32.0563664,11.1462183 30.9641083,9.24980153 30.357905,8.66233458 C29.7535222,8.07486764 28.530193,8.67151376 28.8068984,10.0557327 C28.987121,10.949784 29.1473189,11.581311 30.4853351,14.2359272 C31.8233514,16.8887077 30.9768513,16.4425999 32.1164406,18.8714086 C33.2542095,21.3002173 33.2869773,21.8472959 33.5909891,22.3503144 C33.8968214,22.853333 33.7457257,23.1158573 33.4307913,23.2884257 C33.1158568,23.4591583 32.5897525,22.421912 31.9708062,21.5847716 C31.3536804,20.7476312 30.5381276,18.2839417 29.9355652,17.3036062 C29.3330028,16.3232707 27.345093,11.2985925 26.9810069,10.4761388 C26.6169209,9.65184922 25.9069531,9.09375562 25.3225949,8.97626223 C24.7382368,8.85876884 24.8328992,9.33608574 24.6472153,10.1732261 C24.4578906,11.0103665 25.1077842,11.7538794 25.8086498,13.8026704 C26.507695,15.8496255 26.4239552,15.844118 27.0137746,17.3898904 C27.6054145,18.933827 28.5611404,21.4158748 28.7595673,22.0327151 C28.9561737,22.6495554 29.4385877,23.8905793 29.4385877,24.0007294 C29.4404082,24.6322563 28.7777716,24.4376579 28.5647812,24.160447 C28.3499704,23.8850718 26.2200671,21.1845597 25.3407992,18.6823177 C24.5962433,16.5692725 24.1611604,16.6463775 23.5240099,14.7187516 C22.6684076,12.1394046 21.9620807,11.902582 21.5015118,12.0310904 C21.0427634,12.1614346 20.9171537,12.5800048 20.8661817,14.0872247 C20.8152096,15.566907 25.242496,27.6613828 26.4148531,30.4206416 C26.6606112,30.9970935 26.8990875,31.6690089 27.0865919,32.2142516 C27.1029757,32.3702975 27.1175392,32.5245076 27.1321026,32.6805535 C27.3177865,34.6430603 25.9797703,35.5352757 24.1029067,34.811957 C22.7157388,34.2777293 21.472385,33.2937221 20.0560902,32.9283911 C18.7908912,32.6016126 17.3563922,32.6989118 16.0475028,32.9155403 C15.5760114,32.9926453 14.9188361,33.9913391 14.960706,34.5200594 C14.9971146,34.9937046 15.8308716,35.4857082 16.4043071,35.808815 C16.9977674,36.1466085 17.8023976,36.152116 18.3339632,36.5486562 C21.1301441,38.6359997 24.3067949,40.0349053 26.9901091,42.4875798 C29.1600619,44.4721166 32.4022482,44.1838906 33.7074967,48.0207841 C34.1607838,49.3535998 34.6686838,50.8369538 35.6062054,51.8026026 C36.6675163,52.8930881 36.4818324,55.2466276 37.7688766,55.1548358 C38.9685401,55.0703875 42.272621,54.0937237 42.5930167,53.9872453 C43.6634297,53.6329293 48.915371,52.041261 49.1320022,50.568922 C49.4414753,48.4723993 43.799962,45.9169181 44.0493609,40.1725929 C44.1294599,38.3514454 43.5523835,37.7768293 43.943776,36.5743579 C44.3369889,35.3718864 43.8199867,31.2541103 43.4431577,30.4904033 C43.068149,29.7266963 42.1324479,25.3060075 41.6154457,23.8263251 C41.0984435,22.3429711 39.9661359,18.0067307 39.5765638,16.9933502 C39.1888122,15.9818056 38.8374691,14.9023351 38.5844293,13.8797754 C38.3313895,12.8572157 35.9502667,9.00563558 35.4114194,11.9337911 Z" id="Stroke-1-Copy" fill="#02072F" transform="translate(32.051545, 31.797361) rotate(20.000000) translate(-32.051545, -31.797361) "></path>
    </g>
</svg>