<?xml version="1.0" encoding="UTF-8"?>
<svg width="31px" height="39px" viewBox="0 0 31 39" version="1.1" xmlns="http://www.w3.org/2000/svg" xmlns:xlink="http://www.w3.org/1999/xlink">
    <!-- Generator: Sketch 51.1 (57501) - http://www.bohemiancoding.com/sketch -->
    <title>Orb/leaf Copy</title>
    <desc>Created with Sketch.</desc>
    <defs></defs>
    <g id="July-17" stroke="none" stroke-width="1" fill="none" fill-rule="evenodd">
        <g id="SimpleSplash1-Copy-5" transform="translate(-421.000000, -632.000000)" fill="#02072F">
            <g id="Orbillo/key" transform="translate(404.000000, 619.000000)">
                <g id="Group-3" transform="translate(17.000000, 13.000000)">
                    <path d="M2.06229621,37.0898113 C1.73322201,36.7915805 1.49997711,36.4160306 1.36617771,36.005503 C1.16909481,35.3887911 1.19802441,34.6947602 1.48732041,34.0762074 C1.95019401,33.0876275 2.99527581,32.5445529 4.02950901,32.754419 L4.49961501,32.8501474 L5.86111432,33.8332045 L6.04192432,34.3744382 C6.04734862,34.3873247 6.05096482,34.4002112 6.05458102,34.4130978 C6.42704962,35.5655205 6.07266202,36.67192 5.12160141,37.308882 C4.14884361,37.9587307 2.92114371,37.870366 2.06229621,37.0898113 Z M8.31158648,30.2641916 C9.47197389,28.8571657 11.5883085,28.5174063 13.1310748,29.4867762 C14.6303029,30.4273529 15.2871616,32.3680122 14.6189451,33.9074867 L14.5129391,34.1512689 L14.249817,34.1320734 C13.6970712,34.0879239 13.3241572,34.1608666 13.174613,34.3451428 C13.0231758,34.5332582 13.0231758,34.9325234 13.1783989,35.5007085 L13.2503316,35.7617665 L13.0269617,35.9134105 C11.6015592,36.8770218 9.56851509,36.5929292 8.39487693,35.2646046 C8.04278549,34.8653394 7.78723524,34.4065683 7.63011917,33.9209236 C7.23259657,32.6962543 7.45785938,31.298826 8.31158648,30.2641916 Z M2.99747934,30.8997224 L2.99559012,30.8997224 C2.22856301,30.4211552 1.68257573,29.6888898 1.41808363,28.8720584 C1.17059459,28.0994319 1.17059459,27.2499272 1.48420665,26.4753788 L1.58433581,26.2236025 L1.85071714,26.2428221 C2.41937517,26.2793393 2.79722104,26.2005391 2.94647015,26.0141093 C3.0976085,25.8238356 3.08816235,25.4183028 2.9237994,24.8474818 L2.84067331,24.5591883 L3.09949773,24.4150416 C4.72045649,23.5001904 6.69659036,23.8384547 7.79990029,25.2164974 C9.00711783,26.7213892 8.96933324,28.7798045 7.70543882,30.2193498 C6.53600587,31.5512656 4.51075203,31.8434029 2.99747934,30.8997224 Z M7.93787141,36.3483054 L8.25698358,36.5761306 C10.4531207,38.1468279 12.5452774,38.1746114 14.4724997,36.6613335 C16.0465474,35.4203345 16.6578802,33.6644135 16.2419588,31.584351 C15.8009386,29.4264945 14.4187168,28.2243925 11.6040758,27.5483259 L11.0572825,27.416817 L11.6775791,26.6240594 C11.9447011,26.2813955 12.1938955,25.9628107 12.4466753,25.6460781 C12.5076293,25.5682841 12.5775472,25.4978991 12.6564288,25.4201052 L12.9647844,25.0996681 L13.7267095,25.668305 L14.5711018,24.5903028 L13.8665452,23.9160884 L21.785188,13.8047248 L22.3319814,14.664163 L23.1781664,13.5824564 L22.2315865,13.1638507 L31,1.96707605 L29.9386831,1.07800213 L29.9333048,1.08355884 L28.6568562,2.71537993 L25.4047805,0 L24.5442533,1.10022898 L26.6615088,2.88208129 L24.8956353,5.14181084 L23.5600254,4.09159227 L22.7174258,5.16588992 L24.2860952,6.47542172 L22.5005013,8.75737811 L20.1143311,6.76622298 L19.2538039,7.86645195 L22.4574749,10.5410827 L21.1254505,12.2321753 L20.5445947,11.3801462 L19.7002024,12.4600005 L20.6521606,12.8489704 L12.7371032,22.9566295 L11.9375301,22.3824359 L11.091345,23.4659948 L11.0949305,23.467847 L11.808451,24.1346525 L9.92604777,26.5388565 L9.71091597,25.9442883 C8.76433606,23.327077 7.12037059,22.0953391 4.68221023,22.1823943 C2.69044834,22.2527793 1.22575936,23.3029979 0.444113834,25.2163591 C-0.466610772,27.4520095 0.0210213005,29.4376079 1.92852323,31.2824363 L2.21895115,31.5602719 L1.91597387,31.8232896 C0.756054939,32.8401679 0.261251807,34.0330088 0.402880239,35.4703449 C0.514031667,36.5853918 1.02138415,37.5059538 1.91418111,38.2042472 C2.78008659,38.8821661 3.93462723,39.1488883 5.00132239,38.9192108 C5.7991028,38.7469528 6.9249592,38.2209174 7.75142386,36.6946738 L7.93787141,36.3483054 Z" id="Fill-1"></path>
                </g>
            </g>
        </g>
    </g>
</svg>