<?xml version="1.0" encoding="UTF-8"?>
<svg width="64px" height="64px" viewBox="0 0 64 64" version="1.1" xmlns="http://www.w3.org/2000/svg" xmlns:xlink="http://www.w3.org/1999/xlink">
    <!-- Generator: Sketch 51.1 (57501) - http://www.bohemiancoding.com/sketch -->
    <title>Orbillo/keyV2</title>
    <desc>Created with Sketch.</desc>
    <defs></defs>
    <g id="Orbillo/keyV2" stroke="none" stroke-width="1" fill="none" fill-rule="evenodd">
        <g id="Group-2" transform="translate(23.000000, 9.000000)" fill-rule="nonzero">
            <g id="Group">
                <rect id="Rectangle-14" fill="#02072F" x="7" y="12" width="2" height="35"></rect>
                <rect id="Rectangle-15" fill="#02072F" x="8" y="39" width="4" height="2"></rect>
                <rect id="Rectangle-15-Copy-3" fill="#02072F" x="6" y="18" width="4" height="2"></rect>
                <rect id="Rectangle-15-Copy-2" fill="#02072F" x="8" y="34" width="6" height="2"></rect>
                <rect id="Rectangle-15-Copy" fill="#02072F" x="8" y="43" width="6" height="2"></rect>
                <rect id="Rectangle-16" fill="#02072F" x="8" y="36" width="2" height="4"></rect>
                <rect id="Rectangle-16-Copy" fill="#02072F" x="8" y="40" width="3" height="4"></rect>
                <polygon id="Triangle" fill="#02072F" transform="translate(7.000000, 31.000000) rotate(90.000000) translate(-7.000000, -31.000000) " points="7 30 8 32 6 32"></polygon>
                <polygon id="Triangle-Copy" fill="#02072F" transform="translate(9.000000, 31.000000) scale(-1, 1) rotate(90.000000) translate(-9.000000, -31.000000) " points="9 30 10 32 8 32"></polygon>
                <circle id="Oval-6" stroke="#02072F" stroke-width="2" cx="4" cy="10" r="3"></circle>
                <circle id="Oval-6-Copy-2" stroke="#02072F" stroke-width="2" cx="8" cy="4" r="3"></circle>
                <circle id="Oval-6-Copy" stroke="#02072F" stroke-width="2" cx="12" cy="10" r="3"></circle>
            </g>
            <rect id="Rectangle-17" fill="#02072F" x="7" y="7" width="2" height="5"></rect>
        </g>
    </g>
</svg>