<?xml version="1.0" encoding="UTF-8"?>
<svg width="64px" height="64px" viewBox="0 0 64 64" version="1.1" xmlns="http://www.w3.org/2000/svg" xmlns:xlink="http://www.w3.org/1999/xlink">
    <!-- Generator: Sketch 51.1 (57501) - http://www.bohemiancoding.com/sketch -->
    <title>Orbillo/leafV2</title>
    <desc>Created with Sketch.</desc>
    <defs></defs>
    <g id="Orbillo/leafV2" stroke="none" stroke-width="1" fill="none" fill-rule="evenodd">
        <path d="M39.1390957,37.4275215 C38.4020336,37.0172849 37.6731976,36.6087092 36.9542329,36.2017943 C32.9250697,33.9214102 28.8597114,32.4100121 25.8818488,30.1794544 C22.3742228,27.551947 13.902944,20.8934911 13.902944,20.8934911 L39.1390957,37.4275215 Z M45.6202967,41.0636175 C42.8704712,39.4966852 42.4711192,33.4406413 40.2612922,28.454192 C38.0514652,23.4677428 37.3531801,24.9764892 35.7249755,29.0172326 C34.0967709,33.0613474 33.5151485,27.5270294 32.9352169,21.906738 C32.3519037,16.2847609 30.1437674,19.2938251 29.0971853,24.6275389 C28.0489123,29.9612527 25.7951255,24.9748035 25.2591536,20.2209878 C24.8550613,16.6573117 20.102327,13.8825668 20.5808129,17.0753778 C21.3044594,21.906738 21.0711341,23.3531117 14.1220989,20.1687295 C12.6595891,19.4994867 11.5115611,19.8450655 12.581814,21.0335194 C14.8930867,23.5975455 17.5222229,26.4869215 15.8382232,27.1780791 C12.1625048,28.6868255 9.5282963,30.9963034 18.3963473,29.8230212 C26.3158804,28.7744846 23.2268567,31.2407372 22.2969372,31.5880017 C21.3670176,31.936952 20.2511141,32.0920411 16.7968857,34.2767734 C13.2192315,36.540736 23.5768446,35.7973201 27.6126955,34.2767734 C29.5249483,33.5586438 29.6771169,34.8313852 26.5373703,36.5171355 C23.3976238,38.2012 22.5843668,39.0963333 23.8625835,39.7891767 C24.6641875,40.2222243 27.3717325,39.1703195 37.3748364,39.5377441 C41.8442448,39.7019102 42.8864627,41.7797243 46.8473879,43.5725741 C48.2237189,44.1955485 50.4927059,45.8591392 50.9439897,45.9645002 C51.3952735,46.0698613 52.4888367,45.0291709 51.7352109,44.5940649 C51.3463894,44.3695787 50.6832754,44.1373962 50.1670759,43.8293059 C49.1061868,43.1961211 48.3701222,42.6305498 45.6202967,41.0636175 Z" id="Fill-1" fill="#02072F" transform="translate(32.077813, 30.822082) rotate(60.000000) translate(-32.077813, -30.822082) "></path>
    </g>
</svg>