<?xml version="1.0" encoding="UTF-8"?>
<svg width="51px" height="28px" viewBox="0 0 51 28" version="1.1" xmlns="http://www.w3.org/2000/svg" xmlns:xlink="http://www.w3.org/1999/xlink">
    <!-- Generator: Sketch 51.1 (57501) - http://www.bohemiancoding.com/sketch -->
    <title>Orb/leaf</title>
    <desc>Created with Sketch.</desc>
    <defs></defs>
    <g id="July-17" stroke="none" stroke-width="1" fill="none" fill-rule="evenodd">
        <g id="SimpleSplash1-Copy-5" transform="translate(-980.000000, -308.000000)" fill="#02072F">
            <g id="Orbillo/leaf" transform="translate(973.000000, 292.000000)">
                <path d="M38,41 C37.1530087,40.5285786 36.3154704,40.0590658 35.4892757,39.5914616 C30.8591825,36.9709694 26.1874959,35.2341537 22.7654997,32.6709191 C18.7347285,29.6515319 9,22 9,22 L38,41 Z M38.0868918,43.3148271 C49.7464257,42.7104296 51.0501329,41.214933 58,38.4757724 C58,38.4757724 58,37.2166108 55.9948944,37.8113225 C53.9897887,38.404097 48.1104771,41.7282835 43.0316533,41.7554039 C37.9528295,41.7863987 41.8289785,36.4184961 39.2895666,30.6883424 C36.7501548,24.9581887 35.9477239,26.6919573 34.0766806,31.3353577 C32.2056372,35.9826325 31.5372687,29.622898 30.8708431,23.1643677 C30.2005316,16.7039003 27.6630627,20.1617517 26.4603879,26.2909628 C25.2557701,32.4201738 22.665842,26.6900201 22.0499327,21.2271961 C21.585572,17.1320153 16.1239906,13.9434307 16.6738403,17.6124338 C17.5054151,23.1643677 17.2372906,24.826461 9.2518408,21.1671438 C7.57120478,20.3980866 6.25195408,20.7952068 7.48182992,22.1609128 C10.1378177,25.1073509 13.1590767,28.4276631 11.2239166,29.2219034 C6.99998283,30.9556721 3.97289506,33.6095972 14.1635724,32.2613257 C23.264265,31.056405 19.7145286,33.8904871 18.6459161,34.2895444 C17.5773036,34.690539 16.2949686,34.8687588 12.3255589,37.3793332 C8.21431521,39.9809547 20.1167155,39.126662 24.7544937,37.3793332 C26.9519496,36.5540981 27.1268135,38.0166627 23.5187891,39.9538343 C19.9107647,41.8890688 18.9762145,42.9177069 20.445071,43.7138845 C21.4204227,44.2407951 24.8671838,44.0005859 38.0868918,43.3148271 Z" id="Fill-1"></path>
            </g>
        </g>
    </g>
</svg>