<?xml version="1.0" encoding="UTF-8"?>
<svg width="49px" height="35px" viewBox="0 0 49 35" version="1.1" xmlns="http://www.w3.org/2000/svg" xmlns:xlink="http://www.w3.org/1999/xlink">
    <!-- Generator: Sketch 51.1 (57501) - http://www.bohemiancoding.com/sketch -->
    <title>Orb/leaf Copy 2</title>
    <desc>Created with Sketch.</desc>
    <defs></defs>
    <g id="July-17" stroke="none" stroke-width="1" fill="none" fill-rule="evenodd">
        <g id="SimpleSplash1-Copy-5" transform="translate(-1121.000000, -716.000000)">
            <g id="Orbillo/MrWest" transform="translate(1113.000000, 700.000000)">
                <polygon id="Fill-1" fill="#02072F" fill-rule="evenodd" points="15.7296605 31 14.3766816 34.7444804 12.9410634 31 12.0550929 31 10.6194747 34.7444804 9.26649584 31 8 31 10.1620756 37 11.0480461 37 12.4951954 33.2025316 13.950032 37 14.8360026 37 17 31"></polygon>
                <path d="M39.4991364,16 C39.7063903,18.915989 39.8031088,21.8336044 39.8825561,24.7495934 C39.9654577,27.6672088 39.9568221,30.5831978 40,33.5008132 C39.9602763,36.4168022 39.9637306,39.3344175 39.8842832,42.2504066 C39.8031088,45.1663956 39.7081174,48.084011 39.4991364,51 C39.2918826,48.084011 39.1951641,45.1663956 39.1139896,42.2504066 C39.0345423,39.3344175 39.0379965,36.4168022 39,33.5008132 C39.0414508,30.5831978 39.0345423,27.6672088 39.1157168,24.7495934 C39.1968912,21.8336044 39.2936097,18.915989 39.4991364,16" id="Fill-2" fill="#02072F" fill-rule="evenodd"></path>
                <circle id="Oval" stroke="#02072F" stroke-width="1" fill-rule="nonzero" cx="39.5" cy="33.5" r="6"></circle>
                <path d="M57,33.4991364 C54.000697,33.7063903 50.9997212,33.8013817 48.0004182,33.8825561 C44.9994424,33.9654577 42.0001394,33.9568221 38.9991636,34 C35.9998606,33.9602763 33.0005576,33.9637306 29.9995818,33.8842832 C27.0002788,33.8031088 23.999303,33.7081174 21,33.4991364 C23.999303,33.2918826 27.0002788,33.1951641 29.9995818,33.1139896 C33.0005576,33.0345423 35.9998606,33.0397237 38.9991636,33 C42.0001394,33.0414508 44.9994424,33.0345423 48.0004182,33.1157168 C50.9997212,33.1968912 54.000697,33.2936097 57,33.4991364" id="Fill-5" fill="#02072F" fill-rule="evenodd"></path>
                <g id="Group" stroke-width="1" fill-rule="evenodd" transform="translate(39.081475, 32.788582) rotate(45.000000) translate(-39.081475, -32.788582) translate(29.081475, 23.288582)" fill="#02072F">
                    <path d="M10.7904899,0 C11.0034952,1.54126718 11.1028976,3.08339397 11.1845496,4.62466115 C11.2697517,6.16678794 11.2608765,7.70805512 11.3052526,9.2501819 C11.2644266,10.7914491 11.2679767,12.3335759 11.1863247,13.8748431 C11.1028976,15.4161102 11.0052702,16.958237 10.7904899,18.4995042 C10.5774847,16.958237 10.4780823,15.4161102 10.3946552,13.8748431 C10.3130032,12.3335759 10.3165533,10.7914491 10.2775023,9.2501819 C10.3201034,7.70805512 10.3130032,6.16678794 10.3964303,4.62466115 C10.4798573,3.08339397 10.5792597,1.54126718 10.7904899,0" id="Fill-2"></path>
                    <path d="M19.5272544,9.7627397 C17.9003613,9.97574493 16.2725608,10.0733723 14.6456677,10.1567994 C13.0178672,10.2420015 11.390974,10.2331262 9.76317354,10.2775023 C8.1362804,10.2366763 6.50938727,10.2402264 4.88158677,10.1585744 C3.25469363,10.0751474 1.62689314,9.97751997 0,9.7627397 C1.62689314,9.54973447 3.25469363,9.45033203 4.88158677,9.36690498 C6.50938727,9.28525298 8.1362804,9.29057811 9.76317354,9.2497521 C11.390974,9.29235315 13.0178672,9.28525298 14.6456677,9.36868002 C16.2725608,9.45210707 17.9003613,9.55150951 19.5272544,9.7627397" id="Fill-5"></path>
                </g>
            </g>
        </g>
    </g>
</svg>